<svg width="24" height="24" viewBox="0 0 24 24" fill="none" xmlns="http://www.w3.org/2000/svg">
    <path d="M19.3399 14.4902L18.3399 12.8302C18.1299 12.4602 17.9399 11.7602 17.9399 11.3502V8.82016C17.9387 7.70419 17.6216 6.61137 17.0252 5.66813C16.4288 4.72489 15.5776 3.96978 14.5699 3.49016C14.3128 3.0335 13.9376 2.6543 13.4838 2.3922C13.0299 2.13009 12.514 1.99469 11.9899 2.00016C10.8999 2.00016 9.91994 2.59016 9.39994 3.52016C7.44994 4.49016 6.09994 6.50016 6.09994 8.82016V11.3502C6.09994 11.7602 5.90994 12.4602 5.69994 12.8202L4.68994 14.4902C4.28994 15.1602 4.19994 15.9002 4.44994 16.5802C4.68994 17.2502 5.25994 17.7702 5.99994 18.0202C7.93994 18.6802 9.97994 19.0002 12.0199 19.0002C14.0599 19.0002 16.0999 18.6802 18.0399 18.0302C18.7399 17.8002 19.2799 17.2702 19.5399 16.5802C19.7999 15.8902 19.7299 15.1302 19.3399 14.4902ZM14.8299 20.0102C14.6196 20.5923 14.2352 21.0956 13.7289 21.4516C13.2226 21.8077 12.6189 21.9992 11.9999 22.0002C11.2099 22.0002 10.4299 21.6802 9.87994 21.1102C9.55994 20.8102 9.31994 20.4102 9.17994 20.0002C9.30994 20.0202 9.43994 20.0302 9.57994 20.0502C9.80994 20.0802 10.0499 20.1102 10.2899 20.1302C10.8599 20.1802 11.4399 20.2102 12.0199 20.2102C12.5899 20.2102 13.1599 20.1802 13.7199 20.1302C13.9299 20.1102 14.1399 20.1002 14.3399 20.0702L14.8299 20.0102Z" fill="black"/>
</svg>
