<svg width="24" height="24" viewBox="0 0 24 24" fill="none" xmlns="http://www.w3.org/2000/svg">
    <path fill-rule="evenodd" clip-rule="evenodd" d="M20.1519 0.0590957C19.7993 0.107605 19.4027 0.259275 19.0097 0.495993C18.8544 0.589546 18.3547 1.08165 18.2732 1.22142L18.2149 1.32104L18.3664 1.36057C18.9814 1.52098 19.1028 2.20106 19.0278 5.06695C19.0072 5.85696 18.9828 6.88604 18.9739 7.35381C18.9648 7.82158 18.9508 8.23619 18.9425 8.27517L18.9277 8.34604L15.8192 8.3462C13.0501 8.34628 11.8607 8.36242 11.8985 8.39928C11.9052 8.40589 11.869 8.45495 11.8178 8.50834C11.7667 8.56174 11.7161 8.63915 11.7055 8.68049C11.6949 8.72175 11.6652 8.75554 11.6396 8.75554C11.6139 8.75554 11.5777 8.79806 11.5591 8.85003C11.5406 8.90201 11.5122 8.94453 11.4962 8.94453C11.4801 8.94453 11.4671 8.95729 11.4671 8.97288C11.4671 8.98847 11.4162 9.05084 11.354 9.11148C11.2918 9.17212 11.2409 9.24441 11.2409 9.27213C11.2409 9.29985 11.2187 9.32253 11.1914 9.32253C11.1643 9.32253 11.1328 9.34591 11.1216 9.37442C11.1104 9.40301 11.06 9.46474 11.0096 9.51168C10.9592 9.55869 10.9179 9.6076 10.9179 9.62043C10.9179 9.63327 10.878 9.68311 10.8291 9.73131C10.7802 9.77942 10.7257 9.83904 10.708 9.86376C10.6284 9.97448 10.5918 10.035 10.5748 10.0837C10.5647 10.1125 10.5251 10.1439 10.4869 10.1532C10.4486 10.1627 10.4027 10.1964 10.3849 10.2283C10.2935 10.3922 10.2192 10.4876 10.183 10.4878C10.1608 10.4879 10.1427 10.5027 10.1427 10.5206C10.1427 10.5386 10.1141 10.5846 10.0792 10.623C10.0442 10.6613 9.97349 10.7389 9.92197 10.7954C9.87044 10.8518 9.80091 10.9355 9.76748 10.9813C9.73397 11.0271 9.68115 11.0907 9.65006 11.1228C9.61897 11.1548 9.59353 11.1937 9.59353 11.2094C9.59353 11.225 9.54992 11.2527 9.49662 11.2708C9.44333 11.2889 9.39972 11.3158 9.39972 11.3305C9.39972 11.3886 9.48314 11.5274 9.52893 11.5455C9.65232 11.5943 14.7759 11.6845 17.4446 11.6848C18.5206 11.6849 18.8934 11.6945 18.9224 11.7228C18.9522 11.7518 18.9614 12.7243 18.962 15.9043C18.9625 18.5033 18.9746 20.1009 18.9946 20.1898C19.1284 20.786 19.6768 21.2644 20.3303 21.3548C20.6833 21.4037 22.6018 21.3822 22.789 21.3274C23.3038 21.1764 23.7063 20.8041 23.8776 20.3206L23.9519 20.1111V11.748C23.9519 2.49691 23.9673 3.21589 23.7537 2.52172C23.2498 0.884302 21.7262 -0.157384 20.1519 0.0590957ZM10.3203 0.586632C8.09341 1.05684 6.98488 2.02143 6.18136 4.18812C5.91276 4.91237 5.62236 6.12833 5.5232 6.94432C5.5043 7.10024 5.48282 7.24908 5.47555 7.27506C5.41296 7.49839 5.34739 9.05147 5.40198 9.01864C5.41547 9.01045 5.42653 8.98257 5.42653 8.95658C5.42653 8.93059 5.44107 8.91807 5.45883 8.92878C5.4766 8.93949 5.49114 8.92618 5.49114 8.89917C5.49114 8.87216 5.51141 8.85003 5.53612 8.85003C5.58586 8.85003 5.62035 8.78373 5.62035 8.68813C5.62035 8.65387 5.63488 8.63458 5.65265 8.64529C5.67082 8.65623 5.68495 8.63104 5.68495 8.58757C5.68495 8.53221 5.707 8.50496 5.76296 8.49126C5.80762 8.48031 5.8593 8.4318 5.88393 8.37762C5.90751 8.32557 5.9378 8.28304 5.95128 8.28304C5.96469 8.28304 5.97567 8.26698 5.97567 8.24729C5.97567 8.2276 6.00838 8.1798 6.04835 8.14106C6.16165 8.03113 6.26639 7.90237 6.26639 7.873C6.26639 7.85828 6.29571 7.83725 6.33156 7.82615C6.36734 7.81504 6.42492 7.75196 6.45948 7.68589C6.49404 7.6199 6.56761 7.5217 6.62293 7.46768C6.67833 7.41374 6.71459 7.36956 6.70352 7.36956C6.69246 7.36956 6.7204 7.33349 6.76562 7.2894C6.81085 7.2453 6.84783 7.18151 6.84783 7.14765C6.84783 7.10709 6.86988 7.08607 6.91244 7.08607C6.94797 7.08607 6.97704 7.07299 6.97704 7.05701C6.97704 7.04102 7.01702 6.98645 7.06587 6.93581C7.11473 6.88518 7.21648 6.78013 7.29199 6.70232C7.3675 6.6246 7.42928 6.54506 7.42928 6.52569C7.42928 6.50624 7.49461 6.42954 7.57447 6.35512C7.65442 6.2807 7.71992 6.20566 7.72024 6.18833C7.72048 6.17101 7.78234 6.08998 7.8576 6.00831C7.93295 5.92657 8.04084 5.799 8.09737 5.72482C8.15398 5.65056 8.22666 5.56149 8.25888 5.52684C8.29118 5.49212 8.36063 5.40707 8.4132 5.33785C8.46578 5.26855 8.57116 5.15051 8.6474 5.07546C8.72363 5.00049 8.78597 4.92505 8.78597 4.90788C8.78597 4.85024 8.87569 4.78243 8.89386 4.8263C8.90929 4.86347 8.91518 4.84811 8.91518 4.77086C8.91518 4.7622 8.9449 4.72322 8.98132 4.68423C9.11352 4.54249 9.13201 4.51713 9.17643 4.41649C9.2013 4.36018 9.24079 4.31412 9.26413 4.31412C9.28755 4.31412 9.29764 4.32829 9.28666 4.34562C9.27568 4.36294 9.28093 4.37712 9.29837 4.37712C9.31573 4.37712 9.33955 4.33475 9.35118 4.28301C9.37646 4.17072 9.43202 4.12583 9.43202 4.21773C9.43202 4.33317 9.49024 4.28648 9.5135 4.15252C9.52933 4.06094 9.54443 4.03527 9.5643 4.0659C9.58263 4.09417 9.59418 4.04866 9.59733 3.93612C9.60161 3.77807 9.60411 3.77256 9.62583 3.87312C9.6415 3.94573 9.65111 3.95935 9.65385 3.91297C9.6562 3.87423 9.67235 3.78209 9.68979 3.70823C9.74204 3.48678 9.84581 3.02965 9.93125 2.64465C9.97551 2.44541 10.0714 2.07687 10.1444 1.82566C10.2175 1.57445 10.2848 1.34057 10.2942 1.30592C10.3035 1.27127 10.3532 1.11165 10.4046 0.951159C10.533 0.549857 10.5313 0.542061 10.3203 0.586632ZM4.48613 4.71416C3.50721 5.42526 2.66315 6.57711 2.26518 7.74496C1.88038 8.87437 1.76829 10.8349 2.00305 12.3307C2.01936 12.4347 2.04189 12.5807 2.05304 12.6554C2.07153 12.7785 2.07751 12.7858 2.11764 12.7341C2.1581 12.6822 2.16206 12.6861 2.16295 12.7796C2.16351 12.8359 2.177 12.882 2.19283 12.882C2.2282 12.882 2.2609 12.804 2.2609 12.7198C2.2609 12.6855 2.30451 12.6216 2.35781 12.5779C2.41111 12.5341 2.45472 12.4784 2.45472 12.4539C2.45472 12.4295 2.46925 12.4095 2.48702 12.4095C2.50479 12.4095 2.51932 12.3943 2.51932 12.3758C2.51932 12.3328 2.74302 12.1261 2.79034 12.1255C2.81004 12.1253 2.80439 12.1112 2.77774 12.0945C2.7347 12.0673 2.7347 12.0638 2.77774 12.0632C2.82619 12.0626 2.97156 11.8822 2.97156 11.8229C2.97156 11.8056 3.02938 11.7427 3.10004 11.6831C3.1707 11.6235 3.22925 11.5606 3.23022 11.5432C3.2324 11.5022 3.41458 11.307 3.4506 11.307C3.49687 11.307 3.57537 11.202 3.59774 11.1101C3.62325 11.0055 3.70554 10.9967 3.74584 11.0944C3.7737 11.162 3.77508 11.1611 3.77709 11.0767C3.77822 11.0281 3.76538 10.9966 3.74867 11.0066C3.72985 11.018 3.72339 10.8228 3.73163 10.4966C3.73906 10.206 3.75319 9.60334 3.76312 9.15739C3.80996 7.05197 4.04003 5.86452 4.60953 4.78952C4.74406 4.53548 4.73752 4.53154 4.48613 4.71416ZM9.27083 11.5269C9.25201 11.5611 9.24434 11.6284 9.25379 11.6765C9.26316 11.7244 9.26138 11.7425 9.24967 11.7165C9.19411 11.5925 9.10964 11.6388 9.06515 11.8174C9.05344 11.8643 8.99311 11.9404 8.93109 11.9865C8.86907 12.0327 8.81827 12.0972 8.81827 12.1297C8.81827 12.1623 8.79647 12.189 8.76982 12.189C8.74317 12.189 8.72113 12.1996 8.72088 12.2126C8.72056 12.2256 8.67695 12.2842 8.62398 12.3428C8.57092 12.4015 8.52756 12.4673 8.52756 12.4891C8.52756 12.5109 8.50575 12.5369 8.47902 12.5469C8.45237 12.5569 8.4061 12.6151 8.37614 12.6763C8.34626 12.7374 8.30265 12.7875 8.27931 12.7875C8.25597 12.7875 8.23683 12.7981 8.23675 12.8111C8.23675 12.8241 8.1929 12.8843 8.13944 12.945C8.0859 13.0056 8.02428 13.0942 8.0024 13.1418C7.98051 13.1895 7.94442 13.2285 7.92205 13.2285C7.89976 13.2285 7.88151 13.2414 7.88151 13.2574C7.88151 13.2733 7.8085 13.3571 7.71927 13.4437C7.63003 13.5302 7.5425 13.6417 7.52473 13.6914C7.50599 13.744 7.44446 13.8071 7.37808 13.842C7.30136 13.8822 7.25767 13.9311 7.24556 13.9905C7.23336 14.0496 7.20736 14.0789 7.16682 14.0789C7.13355 14.0789 7.10625 14.0985 7.10625 14.1223C7.10625 14.1462 7.08445 14.1834 7.0578 14.2049C7.03115 14.2265 7.00935 14.2708 7.00935 14.3033C7.00935 14.3358 6.99069 14.3624 6.96784 14.3624C6.94506 14.3624 6.90242 14.4019 6.87319 14.4502C6.84396 14.4984 6.77176 14.5901 6.71281 14.6538C6.46747 14.9187 6.41813 14.9806 6.38987 15.0588C6.37356 15.1039 6.3209 15.1602 6.27293 15.1837C6.22488 15.2073 6.18176 15.2285 6.177 15.2308C6.15196 15.243 6.28569 15.7482 6.41313 16.1233C7.38534 18.9832 8.94975 20.9806 10.8116 21.7392C11.1803 21.8895 11.304 21.9013 11.4178 21.797C11.5401 21.685 11.5217 21.6038 11.2603 21.1039C10.6824 19.9983 10.2312 18.6091 9.90436 16.9296C9.76522 16.2144 9.68446 15.647 9.53006 14.2994C9.51318 14.1522 9.47684 13.7269 9.44922 13.3545C9.42168 12.982 9.38445 12.4859 9.36653 12.252C9.32486 11.707 9.32623 11.5671 9.37315 11.5519C9.41458 11.5384 9.38179 11.4645 9.3343 11.4645C9.31823 11.4645 9.28965 11.4925 9.27083 11.5269ZM0.81376 14.2761C0.789372 14.3047 0.788888 14.3314 0.812226 14.3635C0.840167 14.402 0.842832 14.4009 0.828296 14.3566C0.818767 14.3274 0.828296 14.2975 0.849454 14.2901C0.870693 14.2827 0.879253 14.2672 0.868432 14.2557C0.857611 14.2443 0.833061 14.2534 0.81376 14.2761ZM0.920358 14.2679C0.909375 14.2853 0.923023 14.2994 0.950722 14.2994C0.978421 14.2994 1.00111 14.3136 1.00111 14.3309C1.00111 14.3483 1.01581 14.3624 1.03366 14.3624C1.05304 14.3624 1.04981 14.3368 1.02591 14.2994C0.981248 14.2297 0.95048 14.2204 0.920358 14.2679ZM0.861002 14.3865C0.819332 14.4272 0.79874 14.4314 0.780812 14.4031C0.763369 14.3756 0.745845 14.3818 0.717984 14.4252C0.672841 14.4958 0.722102 14.5443 0.786142 14.4924C0.808511 14.4743 0.858741 14.4677 0.897827 14.4776C0.971718 14.4965 0.992311 14.4472 0.942485 14.3708C0.923265 14.3412 0.903641 14.345 0.861002 14.3865ZM0.634079 14.5916C0.612113 14.6736 0.621158 14.6847 0.689638 14.6591C0.754566 14.6347 0.759169 14.5643 0.697391 14.5412C0.669692 14.5309 0.645142 14.5503 0.634079 14.5916ZM5.02526 16.7525C5.0125 16.7725 4.99077 16.7821 4.97696 16.7737C4.95217 16.7588 4.81279 16.8952 4.81279 16.9344C4.81279 16.9454 4.76878 16.9984 4.71491 17.0522C4.5815 17.1858 4.23135 17.6299 4.23135 17.6657C4.23135 17.6816 4.20954 17.7028 4.18289 17.7128C4.15624 17.7227 4.13444 17.7521 4.13444 17.778C4.13444 17.804 4.10416 17.8409 4.06717 17.8602C4.03026 17.8795 3.98044 17.9403 3.95653 17.9952C3.92076 18.0776 3.90929 18.0854 3.89112 18.04C3.86229 17.9677 3.83621 17.9705 3.78452 18.0512C3.76119 18.0876 3.7561 18.109 3.77338 18.0986C3.80859 18.0774 3.84372 18.148 3.84372 18.2402C3.84372 18.3708 4.29191 19.1703 4.69739 19.763C5.41127 20.8064 6.24418 21.6484 7.17893 22.2715C7.95911 22.7915 7.53159 22.8598 6.50656 22.3789C5.5815 21.9449 4.70684 21.1828 3.8186 20.0368C3.4766 19.5955 3.13307 19.1052 3.13307 19.0584C3.13307 19.0396 3.11037 19.0243 3.08268 19.0243C3.05102 19.0243 3.04133 19.0098 3.05659 18.985C3.07589 18.9537 3.07072 18.9536 3.03188 18.9843C3.00491 19.0055 2.94071 19.1047 2.8891 19.2048C2.8375 19.3048 2.73324 19.4484 2.65733 19.524C2.58142 19.5995 2.51932 19.681 2.51932 19.7051C2.51932 19.7291 2.49857 19.7488 2.47321 19.7488C2.4124 19.7488 2.2286 19.968 2.2286 20.0405C2.2286 20.0717 2.20316 20.1066 2.17207 20.118C2.14098 20.1293 2.10101 20.156 2.08324 20.1773C2.06548 20.1986 2.02187 20.2212 1.98633 20.2277C1.94854 20.2345 1.92528 20.2603 1.93037 20.2898C1.93514 20.3175 1.9181 20.348 1.89242 20.3576C1.80633 20.3898 1.72993 20.5914 1.77992 20.6547C3.33899 22.6265 5.31993 23.6626 8.02453 23.9207C9.63431 24.0743 11.0711 23.6392 10.9709 23.0285C10.9459 22.8766 10.8571 22.8129 10.6345 22.7873C9.90097 22.703 8.54556 21.9088 7.65394 21.0409C6.79559 20.2054 6.14809 19.2257 5.50931 17.7959C5.37549 17.4963 5.36233 17.4669 5.26227 17.2446C5.22327 17.158 5.15923 17.0037 5.1199 16.9016C5.07847 16.7941 5.03858 16.7313 5.02526 16.7525Z" fill="#7000FF"/>
    <path fill-rule="evenodd" clip-rule="evenodd" d="M20.0644 0.0340536C19.3665 0.147215 18.6283 0.609863 18.2427 1.17575C18.1235 1.35065 18.1295 1.37396 18.2993 1.39877C18.7186 1.46011 18.8936 1.76802 18.9804 2.5974L19.0232 3.00689L19.0087 2.6678C18.9746 1.87425 18.7741 1.46688 18.365 1.36018L18.2149 1.32104L18.2732 1.22142C18.7885 0.338495 20.1894 -0.166676 21.3195 0.122646C21.5985 0.194071 21.6693 0.183912 21.4083 0.109889C21.0191 -0.000438173 20.4688 -0.0314652 20.0644 0.0340536ZM21.9191 0.343063C22.7903 0.7598 23.4151 1.49334 23.7453 2.48715C23.7942 2.63441 23.8353 2.73576 23.8366 2.71229C23.8415 2.62228 23.6363 2.08687 23.4938 1.81771C23.1367 1.14346 22.525 0.565134 21.8509 0.264472C21.5361 0.124063 21.5893 0.185251 21.9191 0.343063ZM10.272 0.556472C10.0253 0.598287 9.35419 0.783661 9.37527 0.804214C9.38294 0.811696 9.46062 0.796497 9.54792 0.77051C9.74763 0.710976 10.1803 0.610651 10.3608 0.581986C10.5299 0.555054 10.5303 0.558598 10.4046 0.951159C10.3532 1.11165 10.3035 1.27127 10.2942 1.30592C10.2848 1.34057 10.2175 1.57445 10.1444 1.82566C10.0714 2.07687 9.97551 2.44541 9.93125 2.64465C9.84581 3.02965 9.74204 3.48678 9.68979 3.70823C9.67235 3.78209 9.6562 3.87423 9.65385 3.91297C9.65111 3.95935 9.6415 3.94573 9.62583 3.87312C9.60411 3.77256 9.60161 3.77807 9.59733 3.93612C9.59418 4.04866 9.58263 4.09417 9.5643 4.0659C9.54443 4.03527 9.52933 4.06094 9.5135 4.15252C9.49024 4.28648 9.43202 4.33317 9.43202 4.21773C9.43202 4.12583 9.37646 4.17072 9.35118 4.28301C9.33955 4.33475 9.31573 4.37712 9.29837 4.37712C9.28093 4.37712 9.27568 4.36294 9.28666 4.34562C9.29764 4.32829 9.28755 4.31412 9.26413 4.31412C9.24079 4.31412 9.2013 4.36018 9.17643 4.41649C9.13201 4.51713 9.11352 4.54249 8.98132 4.68423C8.9449 4.72322 8.91641 4.76251 8.9177 4.77165C8.91908 4.7807 8.91294 4.80551 8.90414 4.82677C8.89227 4.85528 8.88742 4.85449 8.88556 4.8237C8.88249 4.77401 8.78597 4.85551 8.78597 4.90788C8.78597 4.92505 8.72363 5.00049 8.6474 5.07546C8.57116 5.15051 8.46578 5.26855 8.4132 5.33785C8.36063 5.40707 8.29118 5.49212 8.25888 5.52684C8.22666 5.56149 8.15398 5.65056 8.09737 5.72482C8.04084 5.799 7.93295 5.92657 7.8576 6.00831C7.78234 6.08998 7.72048 6.17101 7.72024 6.18833C7.71992 6.20566 7.65442 6.2807 7.57447 6.35512C7.49461 6.42954 7.42928 6.50624 7.42928 6.52569C7.42928 6.54506 7.3675 6.6246 7.29199 6.70232C7.21648 6.78013 7.11473 6.88518 7.06587 6.93581C7.01702 6.98645 6.97704 7.04102 6.97704 7.05701C6.97704 7.07299 6.94797 7.08607 6.91244 7.08607C6.86988 7.08607 6.84783 7.10709 6.84783 7.14765C6.84783 7.18151 6.81085 7.2453 6.76562 7.2894C6.7204 7.33349 6.69246 7.36956 6.70352 7.36956C6.71459 7.36956 6.67833 7.41374 6.62293 7.46768C6.56761 7.5217 6.49404 7.6199 6.45948 7.68589C6.42492 7.75196 6.36734 7.81504 6.33156 7.82615C6.29571 7.83725 6.26639 7.85828 6.26639 7.873C6.26639 7.90237 6.16165 8.03113 6.04835 8.14106C6.00838 8.1798 5.97567 8.2276 5.97567 8.24729C5.97567 8.26698 5.96469 8.28304 5.95128 8.28304C5.9378 8.28304 5.90751 8.32557 5.88393 8.37762C5.8593 8.4318 5.80762 8.48031 5.76296 8.49126C5.707 8.50496 5.68495 8.53221 5.68495 8.58757C5.68495 8.63104 5.67082 8.65623 5.65265 8.64529C5.63488 8.63458 5.62035 8.65387 5.62035 8.68813C5.62035 8.78373 5.58586 8.85003 5.53612 8.85003C5.51141 8.85003 5.49114 8.87216 5.49114 8.89917C5.49114 8.92618 5.4766 8.93949 5.45883 8.92878C5.44107 8.91807 5.42653 8.93059 5.42653 8.95658C5.42653 8.98257 5.41547 9.01045 5.40198 9.01864C5.34739 9.05147 5.41296 7.49839 5.47555 7.27506C5.48282 7.24908 5.5043 7.10024 5.5232 6.94432C5.5882 6.40962 5.76217 5.56709 5.92643 4.99135C6.02059 4.66124 6.02979 4.5684 5.94371 4.81811C5.7738 5.3106 5.57272 6.2659 5.45982 7.11757C4.9211 11.1794 5.79116 15.8778 7.63239 18.8502C8.40143 20.0918 9.41548 21.1036 10.3595 21.5714C10.6158 21.6984 10.5453 21.6388 10.2066 21.4419C8.58523 20.4998 7.2777 18.6666 6.41313 16.1233C6.28569 15.7482 6.15196 15.243 6.177 15.2308C6.18176 15.2285 6.22488 15.2073 6.27293 15.1837C6.3209 15.1602 6.37356 15.1039 6.38987 15.0588C6.41813 14.9806 6.46747 14.9187 6.71281 14.6538C6.77176 14.5901 6.84396 14.4984 6.87319 14.4502C6.90242 14.4019 6.94506 14.3624 6.96784 14.3624C6.99069 14.3624 7.00935 14.3358 7.00935 14.3033C7.00935 14.2708 7.03115 14.2265 7.0578 14.2049C7.08445 14.1834 7.10625 14.1462 7.10625 14.1223C7.10625 14.0985 7.13355 14.0789 7.16682 14.0789C7.20736 14.0789 7.23336 14.0496 7.24556 13.9905C7.25767 13.9311 7.30136 13.8822 7.37808 13.842C7.44446 13.8071 7.50599 13.744 7.52473 13.6914C7.5425 13.6417 7.63003 13.5302 7.71927 13.4437C7.8085 13.3571 7.88151 13.2733 7.88151 13.2574C7.88151 13.2414 7.89976 13.2285 7.92205 13.2285C7.94442 13.2285 7.98051 13.1895 8.0024 13.1418C8.02428 13.0942 8.0859 13.0056 8.13944 12.945C8.1929 12.8843 8.23675 12.8241 8.23675 12.8111C8.23683 12.7981 8.25597 12.7875 8.27931 12.7875C8.30265 12.7875 8.34626 12.7374 8.37614 12.6763C8.4061 12.6151 8.45237 12.5569 8.47902 12.5469C8.50575 12.5369 8.52756 12.5109 8.52756 12.4891C8.52756 12.4673 8.57092 12.4015 8.62398 12.3428C8.67695 12.2842 8.72056 12.2256 8.72088 12.2126C8.72113 12.1996 8.74317 12.189 8.76982 12.189C8.79647 12.189 8.81827 12.1623 8.81827 12.1297C8.81827 12.0972 8.86907 12.0327 8.93109 11.9865C8.99311 11.9404 9.05344 11.8643 9.06515 11.8174C9.10956 11.639 9.19549 11.5921 9.24967 11.7165C9.26106 11.7425 9.26237 11.7209 9.25316 11.6686C9.2312 11.5438 9.31026 11.4278 9.37341 11.4921C9.40692 11.5261 9.4074 11.5384 9.37559 11.5498C9.326 11.5676 9.32405 11.6992 9.36653 12.252C9.38453 12.4859 9.4234 12.9959 9.45255 13.3854C9.50447 14.0781 9.5497 14.4881 9.55688 14.3309C9.55882 14.2876 9.53968 14.0041 9.51425 13.7009C9.43583 12.7661 9.39085 11.6811 9.42897 11.644C9.45255 11.621 9.98877 11.6224 11.1999 11.6487C12.1552 11.6695 14.2379 11.694 15.828 11.7032C17.4181 11.7123 18.766 11.7267 18.8235 11.7352L18.9279 11.7507L18.9365 15.9781C18.9434 19.3345 18.9536 20.2218 18.9864 20.2843L19.0278 20.3631L19.0034 20.2843C18.99 20.241 18.9748 18.3073 18.9695 15.9872C18.9628 12.9672 18.95 11.757 18.9245 11.7269C18.8957 11.6932 18.6077 11.685 17.4472 11.6848C14.7763 11.6845 9.65232 11.5943 9.52893 11.5455C9.48314 11.5274 9.39972 11.3886 9.39972 11.3305C9.39972 11.3158 9.44333 11.2889 9.49662 11.2708C9.54992 11.2527 9.59353 11.225 9.59353 11.2094C9.59353 11.1937 9.61897 11.1548 9.65006 11.1228C9.68115 11.0907 9.73397 11.0271 9.76748 10.9813C9.80091 10.9355 9.87044 10.8518 9.92197 10.7954C9.97349 10.7389 10.0442 10.6613 10.0792 10.623C10.1141 10.5846 10.1427 10.5386 10.1427 10.5206C10.1427 10.5027 10.1608 10.4879 10.183 10.4878C10.2192 10.4876 10.2935 10.3922 10.3849 10.2283C10.4027 10.1964 10.4486 10.1627 10.4869 10.1532C10.5251 10.1439 10.5647 10.1125 10.5748 10.0837C10.5918 10.035 10.6284 9.97448 10.708 9.86376C10.7257 9.83904 10.7802 9.77942 10.8291 9.73131C10.878 9.68311 10.9179 9.63327 10.9179 9.62043C10.9179 9.6076 10.9592 9.55869 11.0096 9.51168C11.06 9.46474 11.1104 9.40301 11.1216 9.37442C11.1328 9.34591 11.1643 9.32253 11.1914 9.32253C11.2187 9.32253 11.2409 9.29985 11.2409 9.27213C11.2409 9.24441 11.2918 9.17212 11.354 9.11148C11.4162 9.05084 11.4671 8.98847 11.4671 8.97288C11.4671 8.95729 11.4801 8.94453 11.4962 8.94453C11.5122 8.94453 11.5406 8.90201 11.5591 8.85003C11.5777 8.79806 11.6139 8.75554 11.6396 8.75554C11.6652 8.75554 11.6949 8.72175 11.7055 8.68049C11.7161 8.63915 11.7667 8.56174 11.8178 8.50834C11.869 8.45495 11.9052 8.40589 11.8985 8.39928C11.8607 8.36242 13.0498 8.34628 15.8164 8.3462C18.6185 8.34604 18.924 8.34116 18.9417 8.2962C18.9525 8.26879 18.9582 7.94632 18.9544 7.57958L18.9477 6.91282L18.9287 7.60581C18.9182 7.98695 18.9067 8.30242 18.9032 8.30675C18.8996 8.31116 16.7635 8.31116 14.1563 8.30675L9.41597 8.29879L9.40547 8.03105C9.39061 7.65369 9.45594 6.34685 9.53064 5.52685C9.67721 3.91723 9.93531 2.59173 10.3822 1.15346C10.5987 0.456618 10.6066 0.499773 10.272 0.556472ZM9.22215 0.840675C8.5757 0.997857 7.44278 1.86086 6.95744 2.5659C6.59888 3.08682 6.04045 4.26167 6.11628 4.33562C6.1242 4.34341 6.15569 4.27435 6.18622 4.18229C6.72001 2.57354 7.89299 1.29513 9.21408 0.882176C9.37825 0.830832 9.38407 0.80138 9.22215 0.840675ZM23.8422 2.80214C23.8417 2.82813 23.8652 2.94862 23.8944 3.06989C23.9428 3.27086 23.9485 4.02653 23.9585 11.6036C23.9699 20.2579 23.9724 20.093 23.8275 20.4427C23.738 20.6587 23.7431 20.6881 23.8385 20.5058C24.0077 20.1823 23.9995 20.6251 24 11.7852C24.0004 4.3694 23.9955 3.55167 23.9478 3.23313C23.8994 2.9094 23.8444 2.68457 23.8422 2.80214ZM19.0396 3.87313C19.0396 4.24561 19.0443 4.39798 19.05 4.21174C19.0557 4.0255 19.0557 3.72075 19.05 3.53451C19.0443 3.34827 19.0396 3.50064 19.0396 3.87313ZM4.49753 4.67573C4.39166 4.75338 4.28482 4.84181 4.26011 4.87237C4.23548 4.90284 4.28797 4.86992 4.3768 4.79905C4.59315 4.62659 4.70055 4.56154 4.72664 4.58698C4.73851 4.59864 4.74828 4.59155 4.74828 4.57139C4.74828 4.50831 4.69652 4.52989 4.49753 4.67573ZM4.53743 4.9319C4.45603 5.09837 4.39505 5.24012 4.402 5.24689C4.40886 5.25367 4.47088 5.14224 4.53985 4.99923C4.7029 4.66093 4.71662 4.62911 4.69967 4.62911C4.69183 4.62911 4.61883 4.76535 4.53743 4.9319ZM3.83461 5.25123C3.46402 5.61457 3.21239 5.90862 2.992 6.23558C2.82129 6.48892 2.80295 6.51908 2.81967 6.51908C2.82694 6.51908 2.90277 6.41631 2.98805 6.29071C3.25284 5.9009 3.42372 5.69797 3.82371 5.29847C4.0361 5.08625 4.20318 4.91261 4.19494 4.91261C4.1867 4.91261 4.02455 5.06499 3.83461 5.25123ZM18.9783 5.76931C18.9658 6.20771 18.9606 6.64429 18.9666 6.73957C18.9727 6.83486 18.9902 6.4834 19.0056 5.95847C19.0211 5.43361 19.0263 4.99702 19.0173 4.9882C19.0084 4.97946 18.9908 5.331 18.9783 5.76931ZM4.21747 5.70214C4.15408 5.89728 4.10328 6.07234 4.10458 6.09116C4.10587 6.10998 4.16385 5.95626 4.23346 5.74962C4.30299 5.54291 4.35379 5.36793 4.34628 5.36061C4.33877 5.35328 4.28087 5.507 4.21747 5.70214ZM4.04078 6.32945C4.02132 6.41812 4.00678 6.51482 4.00856 6.54428C4.01033 6.57373 4.03222 6.50695 4.05709 6.39584C4.08205 6.28472 4.0965 6.18802 4.08931 6.18101C4.08213 6.174 4.06032 6.24078 4.04078 6.32945ZM2.6819 6.72697C2.62578 6.82407 2.58499 6.90849 2.59137 6.91471C2.59767 6.92093 2.65049 6.84147 2.70871 6.73823C2.76694 6.63507 2.80764 6.55058 2.79924 6.55058C2.79084 6.55058 2.73803 6.62995 2.6819 6.72697ZM3.97302 6.62429C3.97302 6.63594 3.95179 6.78359 3.92586 6.95243C3.84438 7.48312 3.78139 8.33313 3.76298 9.14928C3.75321 9.5824 3.73924 10.1815 3.73197 10.4808C3.72389 10.8139 3.73018 11.0178 3.74867 11.0066C3.76538 10.9966 3.77822 11.0281 3.77709 11.0767C3.77508 11.1611 3.7737 11.162 3.74584 11.0944C3.70554 10.9967 3.62325 11.0055 3.59774 11.1101C3.57537 11.202 3.49687 11.307 3.4506 11.307C3.41458 11.307 3.2324 11.5022 3.23022 11.5432C3.22925 11.5606 3.1707 11.6235 3.10004 11.6831C3.02938 11.7427 2.97156 11.8056 2.97156 11.8229C2.97156 11.8822 2.82619 12.0626 2.77774 12.0632C2.7347 12.0638 2.7347 12.0673 2.77774 12.0945C2.80439 12.1112 2.81004 12.1253 2.79034 12.1255C2.74302 12.1261 2.51932 12.3328 2.51932 12.3758C2.51932 12.3943 2.50479 12.4095 2.48702 12.4095C2.46925 12.4095 2.45472 12.4295 2.45472 12.4539C2.45472 12.4784 2.41111 12.5341 2.35781 12.5779C2.30451 12.6216 2.2609 12.6855 2.2609 12.7198C2.2609 12.804 2.2282 12.882 2.19283 12.882C2.177 12.882 2.16351 12.8359 2.16295 12.7796C2.16206 12.6861 2.1581 12.6822 2.11764 12.7341C2.07751 12.7858 2.07153 12.7785 2.05304 12.6554C2.04189 12.5807 2.01936 12.4347 2.00305 12.3307C1.89621 11.6501 1.85504 10.3988 1.91125 9.54302C1.92853 9.27937 1.92611 9.24102 1.8993 9.35403C1.88 9.43521 1.86384 9.94661 1.86142 10.551C1.8573 11.5943 1.86336 11.6925 1.98958 12.63C2.11419 13.5552 2.34806 14.5617 2.67027 15.5594C3.69296 18.7264 5.206 21.0031 7.13865 22.2826C7.48574 22.5124 7.52628 22.548 7.52628 22.6237C7.52628 22.7089 7.42509 22.6888 6.76717 22.4731C6.7146 22.4558 6.71162 22.4583 6.75102 22.4864C6.82209 22.537 7.38439 22.7098 7.47823 22.7098C7.69885 22.7098 7.58376 22.5413 7.17893 22.2715C6.24418 21.6484 5.41127 20.8064 4.69739 19.763C4.29191 19.1703 3.84372 18.3708 3.84372 18.2402C3.84372 18.148 3.80859 18.0774 3.77338 18.0986C3.7561 18.109 3.76119 18.0876 3.78452 18.0512C3.83621 17.9705 3.86229 17.9677 3.89112 18.04C3.90929 18.0854 3.92076 18.0776 3.95653 17.9952C3.98044 17.9403 4.03026 17.8795 4.06717 17.8602C4.10416 17.8409 4.13444 17.804 4.13444 17.778C4.13444 17.7521 4.15624 17.7227 4.18289 17.7128C4.20954 17.7028 4.23135 17.6816 4.23135 17.6657C4.23135 17.6299 4.5815 17.1858 4.71491 17.0522C4.76878 16.9984 4.81279 16.9454 4.81279 16.9344C4.81279 16.8952 4.95217 16.7588 4.97696 16.7737C4.99077 16.7821 5.0125 16.7725 5.02526 16.7525C5.03858 16.7313 5.07847 16.7941 5.1199 16.9016C5.15923 17.0037 5.22327 17.158 5.26227 17.2446C5.36233 17.4669 5.37549 17.4963 5.50931 17.7959C5.64053 18.0896 6.03965 18.8804 6.20334 19.171C6.85673 20.3314 7.90389 21.4309 8.96922 22.0752C9.25801 22.2499 9.88395 22.5632 9.90438 22.5433C9.91164 22.5362 9.76556 22.4583 9.57982 22.3702C7.3571 21.3165 5.74691 19.0246 4.6324 15.3287C4.40265 14.5669 4.28151 14.1026 4.16643 13.5435C3.74424 11.4913 3.6622 8.86964 3.96059 6.96574C3.98861 6.7869 4.00282 6.63216 3.99224 6.62184C3.98167 6.61153 3.97302 6.61263 3.97302 6.62429ZM2.4855 7.10969C2.32488 7.45658 2.14584 7.96073 2.17362 7.98782C2.18121 7.9953 2.20665 7.93364 2.23015 7.85079C2.27029 7.70928 2.41331 7.34326 2.53202 7.07819C2.56109 7.01322 2.57813 6.96007 2.56981 6.96007C2.56149 6.96007 2.52354 7.0274 2.4855 7.10969ZM2.03489 8.48779C2.01276 8.60198 2.00129 8.70175 2.00929 8.70955C2.01728 8.71734 2.04151 8.62993 2.06315 8.51535C2.08479 8.40077 2.09634 8.301 2.08875 8.2936C2.08124 8.28627 2.05701 8.37361 2.03489 8.48779ZM1.96107 8.86578C1.94872 8.93508 1.94032 9.04139 1.94226 9.10203C1.94484 9.18086 1.95405 9.15849 1.97456 9.02328C2.00711 8.80901 1.9954 8.67254 1.96107 8.86578ZM0.98506 14.08C0.540822 14.2471 0.000646647 15.6241 6.00668e-07 16.5913C-0.00112998 18.4224 1.59388 21.0369 3.54639 22.4043C3.9832 22.7103 4.97262 23.2483 5.09109 23.2443C5.10684 23.2438 4.92352 23.147 4.68368 23.0293C3.51272 22.4546 2.63666 21.7383 1.77992 20.6547C1.72993 20.5914 1.80633 20.3898 1.89242 20.3576C1.9181 20.348 1.93514 20.3175 1.93037 20.2898C1.92528 20.2603 1.94854 20.2345 1.98633 20.2277C2.02187 20.2212 2.06548 20.1986 2.08324 20.1773C2.10101 20.156 2.14098 20.1293 2.17207 20.118C2.20316 20.1066 2.2286 20.0717 2.2286 20.0405C2.2286 19.968 2.4124 19.7488 2.47321 19.7488C2.49857 19.7488 2.51932 19.7291 2.51932 19.7051C2.51932 19.681 2.58142 19.5995 2.65733 19.524C2.73324 19.4484 2.8375 19.3048 2.8891 19.2048C2.94071 19.1047 3.00491 19.0055 3.03188 18.9843C3.07072 18.9536 3.07589 18.9537 3.05659 18.985C3.04133 19.0098 3.05102 19.0243 3.08268 19.0243C3.11037 19.0243 3.13307 19.0396 3.13307 19.0584C3.13307 19.2148 4.28781 20.6594 4.83477 21.1873C5.11209 21.4549 5.71735 21.9532 5.71735 21.9139C5.71735 21.9051 5.61196 21.8152 5.48316 21.7142C4.23443 20.7346 3.11144 19.1887 2.17912 17.1659C1.83703 16.4238 1.3286 14.9428 1.15012 14.169C1.128 14.0731 1.0768 14.0456 0.98506 14.08ZM0.849454 14.2901C0.828296 14.2975 0.818767 14.3274 0.828296 14.3566C0.842832 14.4009 0.840167 14.402 0.812226 14.3635C0.777016 14.315 0.829508 14.2145 0.868432 14.2557C0.879253 14.2672 0.870693 14.2827 0.849454 14.2901ZM1.02591 14.2994C1.04981 14.3368 1.05304 14.3624 1.03366 14.3624C1.01581 14.3624 1.00111 14.3483 1.00111 14.3309C1.00111 14.3136 0.978421 14.2994 0.950722 14.2994C0.923023 14.2994 0.909375 14.2853 0.920358 14.2679C0.95048 14.2204 0.981248 14.2297 1.02591 14.2994ZM0.968424 14.4528C0.968747 14.4817 0.945473 14.4898 0.897827 14.4776C0.858741 14.4677 0.808511 14.4743 0.786142 14.4924C0.722102 14.5443 0.672841 14.4958 0.717984 14.4252C0.745845 14.3818 0.763369 14.3756 0.780812 14.4031C0.79874 14.4314 0.819332 14.4272 0.861002 14.3865C0.91955 14.3295 0.967374 14.3589 0.968424 14.4528ZM0.742793 14.5987C0.742793 14.6359 0.650004 14.6919 0.626423 14.6689C0.62077 14.6634 0.624146 14.6286 0.634079 14.5916C0.653218 14.5202 0.742793 14.526 0.742793 14.5987ZM9.5652 14.5698C9.5547 14.7492 9.85996 16.8376 9.90276 16.8793C9.92715 16.9032 9.91859 16.8354 9.82217 16.2467C9.77024 15.9293 9.70386 15.4783 9.67479 15.2444C9.61075 14.73 9.57037 14.4814 9.5652 14.5698ZM9.91996 16.9708C9.90567 17.1492 10.4733 19.3315 10.5519 19.4003C10.5763 19.4216 10.5763 19.4217 10.3894 18.7929C10.3078 18.5184 10.1818 18.0294 10.1093 17.7062C9.96615 17.0672 9.92505 16.9074 9.91996 16.9708ZM10.5812 19.4968C10.6363 19.7278 10.9972 20.5866 11.2314 21.0445C11.5185 21.6056 11.5398 21.6864 11.4268 21.7872C11.2901 21.9091 11.1613 21.8922 10.6838 21.6894C10.6172 21.6611 10.5627 21.6457 10.5627 21.6553C10.5627 21.6648 10.6317 21.7014 10.7161 21.7367C11.5201 22.0729 11.7152 21.8876 11.3246 21.1591C11.0991 20.7382 10.9242 20.3485 10.7411 19.8591C10.6036 19.4916 10.552 19.3745 10.5812 19.4968ZM19.0402 20.434C19.168 20.7667 19.7402 21.3036 19.9535 21.2908C19.9674 21.2899 19.8953 21.2473 19.7932 21.1958C19.5532 21.075 19.2606 20.7886 19.1432 20.5596C19.0557 20.3889 18.9939 20.3136 19.0402 20.434ZM23.4998 20.896C23.3699 21.0268 23.2076 21.1546 23.1185 21.1959C23.0333 21.2356 22.9706 21.275 22.9793 21.2836C23.0365 21.3392 23.614 20.8999 23.7074 20.7296C23.7588 20.636 23.7536 20.6401 23.4998 20.896ZM20.037 21.3258C20.0689 21.3447 20.178 21.3657 20.2792 21.3724L20.4634 21.3846L20.3023 21.3558C20.2137 21.3399 20.1046 21.3189 20.06 21.3092C19.9906 21.294 19.9873 21.2965 20.037 21.3258ZM22.7568 21.3313C22.7005 21.3509 22.2 21.3735 21.5616 21.3854L20.4634 21.4059L21.4262 21.4121C22.3345 21.418 22.7792 21.3907 22.9022 21.3214C22.9734 21.2814 22.883 21.2876 22.7568 21.3313ZM5.81426 21.9835C5.90906 22.0617 6.24396 22.2578 6.48348 22.3752C6.77654 22.5189 6.71541 22.4636 6.3957 22.2959C6.22692 22.2074 6.03068 22.0966 5.95962 22.0497C5.78292 21.9332 5.71695 21.9032 5.81426 21.9835ZM9.94968 22.5611C9.99434 22.611 10.4707 22.7684 10.6345 22.7873C10.8654 22.814 10.9496 22.8774 10.9704 23.0408C11.0035 23.3012 10.8244 23.4746 10.3042 23.6858C10.1355 23.7543 10.0153 23.8108 10.0373 23.8113C10.1101 23.813 10.6589 23.5683 10.7739 23.4828C11.1365 23.213 11.0804 22.81 10.6729 22.7578C10.541 22.741 10.3225 22.6784 9.98764 22.5614C9.95751 22.5509 9.94039 22.5507 9.94968 22.5611ZM5.15367 23.2728C5.19946 23.3139 5.74868 23.5087 5.76734 23.4905C5.77622 23.4818 5.68505 23.4426 5.56464 23.4033C5.44431 23.364 5.30663 23.3124 5.25866 23.2886C5.15981 23.2395 5.10789 23.2317 5.15367 23.2728ZM5.85245 23.5276C5.91875 23.5684 6.76435 23.782 6.84123 23.7775C6.87159 23.7757 6.83824 23.7603 6.76717 23.7432C6.69611 23.726 6.47807 23.6702 6.28264 23.6191C5.76193 23.4828 5.78858 23.4884 5.85245 23.5276ZM6.97867 23.809C7.02398 23.8232 7.14753 23.8433 7.25324 23.8535C7.39174 23.867 7.41387 23.8648 7.33247 23.8457C7.16764 23.8071 6.87676 23.7769 6.97867 23.809ZM9.80359 23.8438L9.73899 23.8708H9.80359C9.83913 23.8708 9.89727 23.8586 9.9328 23.8438L9.99741 23.8167H9.9328C9.89727 23.8167 9.83913 23.8289 9.80359 23.8438ZM7.50052 23.8921C7.52983 23.9208 8.46232 24 8.76992 24C9.10635 24 9.75159 23.9243 9.71541 23.889C9.70765 23.8815 9.54994 23.8963 9.36485 23.922C8.94258 23.9805 8.63272 23.9807 8.05927 23.9228C7.55608 23.872 7.47532 23.8675 7.50052 23.8921Z" fill="#7000FF"/>
</svg>
