<svg width="24" height="24" viewBox="0 0 24 24" fill="none" xmlns="http://www.w3.org/2000/svg">
    <path d="M7.63636 21.8182H3.27273C2.9834 21.8182 2.70592 21.7032 2.50134 21.4987C2.29675 21.2941 2.18182 21.0166 2.18182 20.7273V16.3636C2.18182 16.0743 2.06688 15.7968 1.8623 15.5922C1.65771 15.3877 1.38024 15.2727 1.09091 15.2727C0.801582 15.2727 0.524105 15.3877 0.31952 15.5922C0.114935 15.7968 0 16.0743 0 16.3636V20.7273C0 21.5953 0.344804 22.4277 0.95856 23.0414C1.57232 23.6552 2.40475 24 3.27273 24H7.63636C7.92569 24 8.20317 23.8851 8.40775 23.6805C8.61234 23.4759 8.72727 23.1984 8.72727 22.9091C8.72727 22.6198 8.61234 22.3423 8.40775 22.1377C8.20317 21.9331 7.92569 21.8182 7.63636 21.8182ZM22.9091 15.2727C22.6198 15.2727 22.3423 15.3877 22.1377 15.5922C21.9331 15.7968 21.8182 16.0743 21.8182 16.3636V20.7273C21.8182 21.0166 21.7032 21.2941 21.4987 21.4987C21.2941 21.7032 21.0166 21.8182 20.7273 21.8182H16.3636C16.0743 21.8182 15.7968 21.9331 15.5922 22.1377C15.3877 22.3423 15.2727 22.6198 15.2727 22.9091C15.2727 23.1984 15.3877 23.4759 15.5922 23.6805C15.7968 23.8851 16.0743 24 16.3636 24H20.7273C21.5953 24 22.4277 23.6552 23.0414 23.0414C23.6552 22.4277 24 21.5953 24 20.7273V16.3636C24 16.0743 23.8851 15.7968 23.6805 15.5922C23.4759 15.3877 23.1984 15.2727 22.9091 15.2727ZM20.7273 0H16.3636C16.0743 0 15.7968 0.114935 15.5922 0.31952C15.3877 0.524105 15.2727 0.801582 15.2727 1.09091C15.2727 1.38024 15.3877 1.65771 15.5922 1.8623C15.7968 2.06688 16.0743 2.18182 16.3636 2.18182H20.7273C21.0166 2.18182 21.2941 2.29675 21.4987 2.50134C21.7032 2.70592 21.8182 2.9834 21.8182 3.27273V7.63636C21.8182 7.92569 21.9331 8.20317 22.1377 8.40775C22.3423 8.61234 22.6198 8.72727 22.9091 8.72727C23.1984 8.72727 23.4759 8.61234 23.6805 8.40775C23.8851 8.20317 24 7.92569 24 7.63636V3.27273C24 2.40475 23.6552 1.57232 23.0414 0.95856C22.4277 0.344804 21.5953 0 20.7273 0ZM1.09091 8.72727C1.38024 8.72727 1.65771 8.61234 1.8623 8.40775C2.06688 8.20317 2.18182 7.92569 2.18182 7.63636V3.27273C2.18182 2.9834 2.29675 2.70592 2.50134 2.50134C2.70592 2.29675 2.9834 2.18182 3.27273 2.18182H7.63636C7.92569 2.18182 8.20317 2.06688 8.40775 1.8623C8.61234 1.65771 8.72727 1.38024 8.72727 1.09091C8.72727 0.801582 8.61234 0.524105 8.40775 0.31952C8.20317 0.114935 7.92569 0 7.63636 0H3.27273C2.40475 0 1.57232 0.344804 0.95856 0.95856C0.344804 1.57232 0 2.40475 0 3.27273V7.63636C0 7.92569 0.114935 8.20317 0.31952 8.40775C0.524105 8.61234 0.801582 8.72727 1.09091 8.72727ZM9.81818 4.36364H5.45455C5.16522 4.36364 4.88774 4.47857 4.68316 4.68316C4.47857 4.88774 4.36364 5.16522 4.36364 5.45455V9.81818C4.36364 10.1075 4.47857 10.385 4.68316 10.5896C4.88774 10.7942 5.16522 10.9091 5.45455 10.9091H9.81818C10.1075 10.9091 10.385 10.7942 10.5896 10.5896C10.7942 10.385 10.9091 10.1075 10.9091 9.81818V5.45455C10.9091 5.16522 10.7942 4.88774 10.5896 4.68316C10.385 4.47857 10.1075 4.36364 9.81818 4.36364ZM8.72727 8.72727H6.54545V6.54545H8.72727V8.72727ZM14.1818 10.9091H18.5455C18.8348 10.9091 19.1123 10.7942 19.3168 10.5896C19.5214 10.385 19.6364 10.1075 19.6364 9.81818V5.45455C19.6364 5.16522 19.5214 4.88774 19.3168 4.68316C19.1123 4.47857 18.8348 4.36364 18.5455 4.36364H14.1818C13.8925 4.36364 13.615 4.47857 13.4104 4.68316C13.2058 4.88774 13.0909 5.16522 13.0909 5.45455V9.81818C13.0909 10.1075 13.2058 10.385 13.4104 10.5896C13.615 10.7942 13.8925 10.9091 14.1818 10.9091ZM15.2727 6.54545H17.4545V8.72727H15.2727V6.54545ZM9.81818 13.0909H5.45455C5.16522 13.0909 4.88774 13.2058 4.68316 13.4104C4.47857 13.615 4.36364 13.8925 4.36364 14.1818V18.5455C4.36364 18.8348 4.47857 19.1123 4.68316 19.3168C4.88774 19.5214 5.16522 19.6364 5.45455 19.6364H9.81818C10.1075 19.6364 10.385 19.5214 10.5896 19.3168C10.7942 19.1123 10.9091 18.8348 10.9091 18.5455V14.1818C10.9091 13.8925 10.7942 13.615 10.5896 13.4104C10.385 13.2058 10.1075 13.0909 9.81818 13.0909ZM8.72727 17.4545H6.54545V15.2727H8.72727V17.4545ZM14.1818 16.3636C14.4711 16.3636 14.7486 16.2487 14.9532 16.0441C15.1578 15.8395 15.2727 15.5621 15.2727 15.2727C15.5621 15.2727 15.8395 15.1578 16.0441 14.9532C16.2487 14.7486 16.3636 14.4711 16.3636 14.1818C16.3636 13.8925 16.2487 13.615 16.0441 13.4104C15.8395 13.2058 15.5621 13.0909 15.2727 13.0909H14.1818C13.8925 13.0909 13.615 13.2058 13.4104 13.4104C13.2058 13.615 13.0909 13.8925 13.0909 14.1818V15.2727C13.0909 15.5621 13.2058 15.8395 13.4104 16.0441C13.615 16.2487 13.8925 16.3636 14.1818 16.3636ZM18.5455 13.0909C18.2561 13.0909 17.9787 13.2058 17.7741 13.4104C17.5695 13.615 17.4545 13.8925 17.4545 14.1818V17.4545C17.1652 17.4545 16.8877 17.5695 16.6832 17.7741C16.4786 17.9787 16.3636 18.2561 16.3636 18.5455C16.3636 18.8348 16.4786 19.1123 16.6832 19.3168C16.8877 19.5214 17.1652 19.6364 17.4545 19.6364H18.5455C18.8348 19.6364 19.1123 19.5214 19.3168 19.3168C19.5214 19.1123 19.6364 18.8348 19.6364 18.5455V14.1818C19.6364 13.8925 19.5214 13.615 19.3168 13.4104C19.1123 13.2058 18.8348 13.0909 18.5455 13.0909ZM14.1818 17.4545C13.9661 17.4545 13.7551 17.5185 13.5757 17.6384C13.3963 17.7583 13.2565 17.9286 13.174 18.128C13.0914 18.3273 13.0698 18.5467 13.1119 18.7583C13.154 18.9699 13.2579 19.1643 13.4104 19.3168C13.563 19.4694 13.7574 19.5733 13.969 19.6154C14.1806 19.6575 14.4 19.6359 14.5993 19.5533C14.7986 19.4708 14.969 19.3309 15.0889 19.1515C15.2087 18.9721 15.2727 18.7612 15.2727 18.5455C15.2727 18.2561 15.1578 17.9787 14.9532 17.7741C14.7486 17.5695 14.4711 17.4545 14.1818 17.4545Z" fill="#7000FF"/>
</svg>
